<mxfile host="app.diagrams.net" modified="2022-07-25T18:04:34.913Z" agent="5.0 (Windows NT 10.0; Win64; x64) AppleWebKit/537.36 (KHTML, like Gecko) Chrome/102.0.0.0 Safari/537.36" etag="ZAr-LMHadwnLKJ0H6YvU" version="20.2.0" type="github">
  <diagram id="1rG9p1TGTZ7zT13oKB2e" name="Page-1">
    <mxGraphModel dx="1673" dy="925" grid="1" gridSize="10" guides="1" tooltips="1" connect="1" arrows="1" fold="1" page="1" pageScale="1" pageWidth="850" pageHeight="1100" math="0" shadow="0">
      <root>
        <mxCell id="0" />
        <mxCell id="1" parent="0" />
        <mxCell id="PBk8WEaCfL0DDT6xwDyO-1" value="FrontEnd" style="rounded=1;whiteSpace=wrap;html=1;fontSize=16;fontStyle=1;fontFamily=Courier New;" vertex="1" parent="1">
          <mxGeometry x="120" y="415" width="160" height="110" as="geometry" />
        </mxCell>
        <mxCell id="PBk8WEaCfL0DDT6xwDyO-3" value="BackEnd" style="ellipse;whiteSpace=wrap;html=1;aspect=fixed;fontFamily=Courier New;fontSize=16;fontStyle=1" vertex="1" parent="1">
          <mxGeometry x="520" y="400" width="140" height="140" as="geometry" />
        </mxCell>
        <mxCell id="PBk8WEaCfL0DDT6xwDyO-4" value="" style="triangle;whiteSpace=wrap;html=1;fontFamily=Courier New;fontSize=16;rotation=90;" vertex="1" parent="1">
          <mxGeometry x="330" y="170" width="130" height="160" as="geometry" />
        </mxCell>
        <mxCell id="PBk8WEaCfL0DDT6xwDyO-5" value="LinkedIn API" style="text;html=1;strokeColor=none;fillColor=none;align=center;verticalAlign=middle;whiteSpace=wrap;rounded=0;fontFamily=Courier New;fontSize=14;fontStyle=1" vertex="1" parent="1">
          <mxGeometry x="357.5" y="220" width="75" height="40" as="geometry" />
        </mxCell>
        <mxCell id="PBk8WEaCfL0DDT6xwDyO-6" value="" style="endArrow=classic;html=1;rounded=0;fontFamily=Courier New;fontSize=14;entryX=0.082;entryY=0.769;entryDx=0;entryDy=0;entryPerimeter=0;" edge="1" parent="1" target="PBk8WEaCfL0DDT6xwDyO-3">
          <mxGeometry width="50" height="50" relative="1" as="geometry">
            <mxPoint x="280" y="510" as="sourcePoint" />
            <mxPoint x="530" y="510" as="targetPoint" />
          </mxGeometry>
        </mxCell>
        <mxCell id="PBk8WEaCfL0DDT6xwDyO-8" value="" style="endArrow=classic;html=1;rounded=0;fontFamily=Courier New;fontSize=12;exitX=0.029;exitY=0.66;exitDx=0;exitDy=0;exitPerimeter=0;entryX=1.002;entryY=0.704;entryDx=0;entryDy=0;entryPerimeter=0;" edge="1" parent="1" source="PBk8WEaCfL0DDT6xwDyO-3" target="PBk8WEaCfL0DDT6xwDyO-1">
          <mxGeometry width="50" height="50" relative="1" as="geometry">
            <mxPoint x="380" y="460" as="sourcePoint" />
            <mxPoint x="430" y="410" as="targetPoint" />
          </mxGeometry>
        </mxCell>
        <mxCell id="PBk8WEaCfL0DDT6xwDyO-9" value="&lt;font color=&quot;#ff0080&quot;&gt;&lt;b&gt;Redirect URL&lt;/b&gt;&lt;/font&gt;" style="text;html=1;strokeColor=none;fillColor=none;align=center;verticalAlign=middle;whiteSpace=wrap;rounded=0;fontFamily=Courier New;fontSize=10;" vertex="1" parent="1">
          <mxGeometry x="320" y="474" width="150" height="20" as="geometry" />
        </mxCell>
        <mxCell id="PBk8WEaCfL0DDT6xwDyO-10" value="" style="endArrow=classic;html=1;rounded=0;fontFamily=Courier New;fontSize=10;exitX=0.25;exitY=0;exitDx=0;exitDy=0;entryX=0.091;entryY=0.953;entryDx=0;entryDy=0;entryPerimeter=0;" edge="1" parent="1" source="PBk8WEaCfL0DDT6xwDyO-1" target="PBk8WEaCfL0DDT6xwDyO-4">
          <mxGeometry width="50" height="50" relative="1" as="geometry">
            <mxPoint x="170" y="410" as="sourcePoint" />
            <mxPoint x="230" y="310" as="targetPoint" />
          </mxGeometry>
        </mxCell>
        <mxCell id="PBk8WEaCfL0DDT6xwDyO-11" value="Rediredct to LinkedIn Auth page" style="text;html=1;strokeColor=none;fillColor=none;align=center;verticalAlign=middle;whiteSpace=wrap;rounded=0;fontFamily=Courier New;fontSize=10;rotation=-54;" vertex="1" parent="1">
          <mxGeometry x="140" y="290" width="158.28" height="30" as="geometry" />
        </mxCell>
        <mxCell id="PBk8WEaCfL0DDT6xwDyO-12" value="" style="endArrow=classic;html=1;rounded=0;fontFamily=Courier New;fontSize=10;exitX=0.25;exitY=0;exitDx=0;exitDy=0;entryX=0.5;entryY=0;entryDx=0;entryDy=0;" edge="1" parent="1" target="PBk8WEaCfL0DDT6xwDyO-1">
          <mxGeometry width="50" height="50" relative="1" as="geometry">
            <mxPoint x="342.52" y="229.99999999999994" as="sourcePoint" />
            <mxPoint x="180" y="448.17" as="targetPoint" />
          </mxGeometry>
        </mxCell>
        <mxCell id="PBk8WEaCfL0DDT6xwDyO-13" value="&lt;font color=&quot;#0000cc&quot;&gt;&lt;b&gt;Code&lt;/b&gt;&lt;/font&gt;" style="text;html=1;strokeColor=none;fillColor=none;align=center;verticalAlign=middle;whiteSpace=wrap;rounded=0;fontFamily=Courier New;fontSize=10;rotation=-54;" vertex="1" parent="1">
          <mxGeometry x="220" y="320" width="80" height="10" as="geometry" />
        </mxCell>
        <mxCell id="PBk8WEaCfL0DDT6xwDyO-14" value="Get &lt;font color=&quot;#ff3399&quot;&gt;&lt;b&gt;Redirect URL&lt;/b&gt;&lt;/font&gt;" style="text;html=1;strokeColor=none;fillColor=none;align=center;verticalAlign=middle;whiteSpace=wrap;rounded=0;fontFamily=Courier New;fontSize=10;" vertex="1" parent="1">
          <mxGeometry x="320" y="494" width="150" height="20" as="geometry" />
        </mxCell>
        <mxCell id="PBk8WEaCfL0DDT6xwDyO-15" value="" style="endArrow=classic;html=1;rounded=0;fontFamily=Courier New;fontSize=14;entryX=0.082;entryY=0.769;entryDx=0;entryDy=0;entryPerimeter=0;" edge="1" parent="1">
          <mxGeometry width="50" height="50" relative="1" as="geometry">
            <mxPoint x="280" y="510" as="sourcePoint" />
            <mxPoint x="531.48" y="507.6600000000001" as="targetPoint" />
          </mxGeometry>
        </mxCell>
        <mxCell id="PBk8WEaCfL0DDT6xwDyO-16" value="" style="endArrow=classic;html=1;rounded=0;fontFamily=Courier New;fontSize=12;exitX=0.031;exitY=0.317;exitDx=0;exitDy=0;exitPerimeter=0;entryX=1.002;entryY=0.267;entryDx=0;entryDy=0;entryPerimeter=0;" edge="1" parent="1" source="PBk8WEaCfL0DDT6xwDyO-3" target="PBk8WEaCfL0DDT6xwDyO-1">
          <mxGeometry width="50" height="50" relative="1" as="geometry">
            <mxPoint x="522.1" y="444.36" as="sourcePoint" />
            <mxPoint x="280.96000000000004" y="444.6600000000001" as="targetPoint" />
          </mxGeometry>
        </mxCell>
        <mxCell id="PBk8WEaCfL0DDT6xwDyO-17" value="&lt;b style=&quot;&quot;&gt;&lt;font color=&quot;#cc6600&quot;&gt;OurAccessToken&lt;/font&gt;&lt;/b&gt;" style="text;html=1;strokeColor=none;fillColor=none;align=center;verticalAlign=middle;whiteSpace=wrap;rounded=0;fontFamily=Courier New;fontSize=10;" vertex="1" parent="1">
          <mxGeometry x="320" y="426" width="150" height="20" as="geometry" />
        </mxCell>
        <mxCell id="PBk8WEaCfL0DDT6xwDyO-18" value="Send &lt;b&gt;&lt;font color=&quot;#0000cc&quot;&gt;C&lt;/font&gt;&lt;font color=&quot;#0000ff&quot;&gt;ode&lt;/font&gt;&lt;/b&gt;" style="text;html=1;strokeColor=none;fillColor=none;align=center;verticalAlign=middle;whiteSpace=wrap;rounded=0;fontFamily=Courier New;fontSize=10;" vertex="1" parent="1">
          <mxGeometry x="320" y="454" width="150" height="20" as="geometry" />
        </mxCell>
        <mxCell id="PBk8WEaCfL0DDT6xwDyO-19" value="" style="endArrow=classic;html=1;rounded=0;fontFamily=Courier New;fontSize=14;entryX=-0.006;entryY=0.485;entryDx=0;entryDy=0;entryPerimeter=0;" edge="1" parent="1" target="PBk8WEaCfL0DDT6xwDyO-3">
          <mxGeometry width="50" height="50" relative="1" as="geometry">
            <mxPoint x="280" y="470" as="sourcePoint" />
            <mxPoint x="531.48" y="467.6600000000001" as="targetPoint" />
          </mxGeometry>
        </mxCell>
        <mxCell id="PBk8WEaCfL0DDT6xwDyO-20" value="" style="endArrow=classic;html=1;rounded=0;fontFamily=Courier New;fontSize=10;exitX=0.773;exitY=0.084;exitDx=0;exitDy=0;entryX=0.169;entryY=0.075;entryDx=0;entryDy=0;entryPerimeter=0;exitPerimeter=0;" edge="1" parent="1" source="PBk8WEaCfL0DDT6xwDyO-3" target="PBk8WEaCfL0DDT6xwDyO-4">
          <mxGeometry width="50" height="50" relative="1" as="geometry">
            <mxPoint x="510" y="410" as="sourcePoint" />
            <mxPoint x="560" y="360" as="targetPoint" />
          </mxGeometry>
        </mxCell>
        <mxCell id="PBk8WEaCfL0DDT6xwDyO-21" value="Send &lt;b&gt;&lt;font color=&quot;#0000cc&quot;&gt;Code&lt;/font&gt;&lt;/b&gt;, &lt;font color=&quot;#00cc00&quot;&gt;&lt;b&gt;Secret&lt;/b&gt;&lt;/font&gt; and &lt;b&gt;&lt;font color=&quot;#ff0000&quot;&gt;ClintId&lt;/font&gt;&lt;/b&gt;" style="text;html=1;strokeColor=none;fillColor=none;align=center;verticalAlign=middle;whiteSpace=wrap;rounded=0;fontFamily=Courier New;fontSize=10;rotation=52;" vertex="1" parent="1">
          <mxGeometry x="449.76000000000005" y="297.84" width="210.24" height="14.31" as="geometry" />
        </mxCell>
        <mxCell id="PBk8WEaCfL0DDT6xwDyO-22" value="" style="endArrow=classic;html=1;rounded=0;fontFamily=Courier New;fontSize=10;exitX=0.697;exitY=0.346;exitDx=0;exitDy=0;entryX=0;entryY=0;entryDx=0;entryDy=0;exitPerimeter=0;" edge="1" parent="1" source="PBk8WEaCfL0DDT6xwDyO-4" target="PBk8WEaCfL0DDT6xwDyO-3">
          <mxGeometry width="50" height="50" relative="1" as="geometry">
            <mxPoint x="420" y="285.68999999999994" as="sourcePoint" />
            <mxPoint x="585.22" y="490.48" as="targetPoint" />
          </mxGeometry>
        </mxCell>
        <mxCell id="PBk8WEaCfL0DDT6xwDyO-23" value="&lt;b style=&quot;&quot;&gt;&lt;font color=&quot;#990099&quot;&gt;LinkedInAccessToken&lt;/font&gt;&lt;/b&gt;" style="text;html=1;strokeColor=none;fillColor=none;align=center;verticalAlign=middle;whiteSpace=wrap;rounded=0;fontFamily=Courier New;fontSize=10;rotation=50;" vertex="1" parent="1">
          <mxGeometry x="432.5" y="340" width="110" height="14.31" as="geometry" />
        </mxCell>
        <mxCell id="PBk8WEaCfL0DDT6xwDyO-25" value="&lt;b&gt;1.&lt;/b&gt;" style="text;html=1;strokeColor=none;fillColor=none;align=center;verticalAlign=middle;whiteSpace=wrap;rounded=0;fontFamily=Courier New;fontSize=10;fontColor=#FF0000;" vertex="1" parent="1">
          <mxGeometry x="280" y="498.5" width="20" height="11" as="geometry" />
        </mxCell>
        <mxCell id="PBk8WEaCfL0DDT6xwDyO-26" value="&lt;b&gt;2.&lt;/b&gt;" style="text;html=1;strokeColor=none;fillColor=none;align=center;verticalAlign=middle;whiteSpace=wrap;rounded=0;fontFamily=Courier New;fontSize=10;fontColor=#FF0000;" vertex="1" parent="1">
          <mxGeometry x="500" y="478.5" width="20" height="11" as="geometry" />
        </mxCell>
        <mxCell id="PBk8WEaCfL0DDT6xwDyO-27" value="&lt;b&gt;3.&lt;/b&gt;" style="text;html=1;strokeColor=none;fillColor=none;align=center;verticalAlign=middle;whiteSpace=wrap;rounded=0;fontFamily=Courier New;fontSize=10;fontColor=#FF0000;" vertex="1" parent="1">
          <mxGeometry x="146.99999999999997" y="402" width="20" height="11" as="geometry" />
        </mxCell>
        <mxCell id="PBk8WEaCfL0DDT6xwDyO-28" value="&lt;b&gt;4.&lt;/b&gt;" style="text;html=1;strokeColor=none;fillColor=none;align=center;verticalAlign=middle;whiteSpace=wrap;rounded=0;fontFamily=Courier New;fontSize=10;fontColor=#FF0000;rotation=0;" vertex="1" parent="1">
          <mxGeometry x="323" y="224" width="20" height="11" as="geometry" />
        </mxCell>
        <mxCell id="PBk8WEaCfL0DDT6xwDyO-29" value="&lt;b&gt;5.&lt;/b&gt;" style="text;html=1;strokeColor=none;fillColor=none;align=center;verticalAlign=middle;whiteSpace=wrap;rounded=0;fontFamily=Courier New;fontSize=10;fontColor=#FF0000;" vertex="1" parent="1">
          <mxGeometry x="278.28" y="458.5" width="20" height="11" as="geometry" />
        </mxCell>
        <mxCell id="PBk8WEaCfL0DDT6xwDyO-30" value="&lt;b&gt;8.&lt;/b&gt;" style="text;html=1;strokeColor=none;fillColor=none;align=center;verticalAlign=middle;whiteSpace=wrap;rounded=0;fontFamily=Courier New;fontSize=10;fontColor=#FF0000;" vertex="1" parent="1">
          <mxGeometry x="507" y="433" width="20" height="11" as="geometry" />
        </mxCell>
        <mxCell id="PBk8WEaCfL0DDT6xwDyO-32" value="&lt;b&gt;6.&lt;/b&gt;" style="text;html=1;strokeColor=none;fillColor=none;align=center;verticalAlign=middle;whiteSpace=wrap;rounded=0;fontFamily=Courier New;fontSize=10;fontColor=#FF0000;" vertex="1" parent="1">
          <mxGeometry x="620" y="392" width="20" height="10" as="geometry" />
        </mxCell>
        <mxCell id="PBk8WEaCfL0DDT6xwDyO-33" value="&lt;b&gt;7.&lt;/b&gt;" style="text;html=1;strokeColor=none;fillColor=none;align=center;verticalAlign=middle;whiteSpace=wrap;rounded=0;fontFamily=Courier New;fontSize=10;fontColor=#FF0000;" vertex="1" parent="1">
          <mxGeometry x="425" y="270" width="20" height="10" as="geometry" />
        </mxCell>
        <mxCell id="PBk8WEaCfL0DDT6xwDyO-35" value="&lt;font&gt;&lt;b&gt;FrontEnd&lt;/b&gt;&lt;/font&gt;" style="rounded=0;whiteSpace=wrap;html=1;fontFamily=Courier New;fontSize=10;fontColor=#000000;" vertex="1" parent="1">
          <mxGeometry x="241" y="800" width="120" height="80" as="geometry" />
        </mxCell>
        <mxCell id="pd4c6uAxkkvnBWKRY6Wq-1" value="&lt;b&gt;&lt;font face=&quot;Courier New&quot;&gt;FrontEnd&lt;/font&gt;&lt;/b&gt;" style="rounded=0;whiteSpace=wrap;html=1;" vertex="1" parent="1">
          <mxGeometry x="200" y="800" width="120" height="80" as="geometry" />
        </mxCell>
        <mxCell id="PBk8WEaCfL0DDT6xwDyO-36" value="&lt;b&gt;Backend&lt;/b&gt;" style="rounded=0;whiteSpace=wrap;html=1;fontFamily=Courier New;fontSize=10;fontColor=#000000;" vertex="1" parent="1">
          <mxGeometry x="520" y="800" width="120" height="80" as="geometry" />
        </mxCell>
        <mxCell id="pd4c6uAxkkvnBWKRY6Wq-2" value="&lt;font face=&quot;Courier New&quot;&gt;&lt;b&gt;BackEnd&lt;/b&gt;&lt;/font&gt;" style="rounded=0;whiteSpace=wrap;html=1;" vertex="1" parent="1">
          <mxGeometry x="481" y="800" width="120" height="80" as="geometry" />
        </mxCell>
        <mxCell id="PBk8WEaCfL0DDT6xwDyO-37" value="" style="endArrow=none;html=1;rounded=0;fontFamily=Courier New;fontSize=10;fontColor=#000000;exitX=0;exitY=0;exitDx=0;exitDy=0;" edge="1" parent="1" source="PBk8WEaCfL0DDT6xwDyO-35">
          <mxGeometry width="50" height="50" relative="1" as="geometry">
            <mxPoint x="221" y="800" as="sourcePoint" />
            <mxPoint x="121" y="720" as="targetPoint" />
          </mxGeometry>
        </mxCell>
        <mxCell id="pd4c6uAxkkvnBWKRY6Wq-3" value="" style="endArrow=classic;html=1;rounded=0;fontFamily=Courier New;exitX=1;exitY=0.75;exitDx=0;exitDy=0;entryX=0;entryY=0.75;entryDx=0;entryDy=0;" edge="1" parent="1" source="pd4c6uAxkkvnBWKRY6Wq-1" target="pd4c6uAxkkvnBWKRY6Wq-2">
          <mxGeometry width="50" height="50" relative="1" as="geometry">
            <mxPoint x="350" y="880" as="sourcePoint" />
            <mxPoint x="400" y="830" as="targetPoint" />
          </mxGeometry>
        </mxCell>
        <mxCell id="PBk8WEaCfL0DDT6xwDyO-38" value="" style="endArrow=none;html=1;rounded=0;fontFamily=Courier New;fontSize=10;fontColor=#000000;exitX=0;exitY=0;exitDx=0;exitDy=0;" edge="1" parent="1">
          <mxGeometry width="50" height="50" relative="1" as="geometry">
            <mxPoint x="241" y="880" as="sourcePoint" />
            <mxPoint x="121" y="960" as="targetPoint" />
          </mxGeometry>
        </mxCell>
        <mxCell id="pd4c6uAxkkvnBWKRY6Wq-4" value="" style="endArrow=classic;html=1;rounded=0;fontFamily=Courier New;exitX=0;exitY=0.25;exitDx=0;exitDy=0;entryX=1;entryY=0.25;entryDx=0;entryDy=0;" edge="1" parent="1" source="pd4c6uAxkkvnBWKRY6Wq-2" target="pd4c6uAxkkvnBWKRY6Wq-1">
          <mxGeometry width="50" height="50" relative="1" as="geometry">
            <mxPoint x="330" y="910" as="sourcePoint" />
            <mxPoint x="490" y="910" as="targetPoint" />
          </mxGeometry>
        </mxCell>
        <mxCell id="PBk8WEaCfL0DDT6xwDyO-39" value="1. Create gif template" style="text;html=1;strokeColor=none;fillColor=none;align=left;verticalAlign=middle;whiteSpace=wrap;rounded=0;fontFamily=Courier New;fontSize=10;fontColor=#000000;" vertex="1" parent="1">
          <mxGeometry y="740" width="160" height="20" as="geometry" />
        </mxCell>
        <mxCell id="pd4c6uAxkkvnBWKRY6Wq-5" value="Create gif from HTML" style="text;html=1;strokeColor=none;fillColor=none;align=center;verticalAlign=middle;whiteSpace=wrap;rounded=0;fontFamily=Courier New;fontSize=9;" vertex="1" parent="1">
          <mxGeometry x="323" y="850" width="150" height="10" as="geometry" />
        </mxCell>
        <mxCell id="PBk8WEaCfL0DDT6xwDyO-40" value="2. Choose recipient" style="text;html=1;strokeColor=none;fillColor=none;align=left;verticalAlign=middle;whiteSpace=wrap;rounded=0;fontFamily=Courier New;fontSize=10;fontColor=#000000;" vertex="1" parent="1">
          <mxGeometry y="762" width="160" height="20" as="geometry" />
        </mxCell>
        <mxCell id="pd4c6uAxkkvnBWKRY6Wq-6" value="Created gif" style="text;html=1;strokeColor=none;fillColor=none;align=center;verticalAlign=middle;whiteSpace=wrap;rounded=0;fontFamily=Courier New;fontSize=9;" vertex="1" parent="1">
          <mxGeometry x="326" y="811" width="150" height="10" as="geometry" />
        </mxCell>
        <mxCell id="PBk8WEaCfL0DDT6xwDyO-41" value="3. User Checke Card created from HTML, CSS and JS" style="text;html=1;strokeColor=none;fillColor=none;align=left;verticalAlign=middle;whiteSpace=wrap;rounded=0;fontFamily=Courier New;fontSize=10;fontColor=#000000;" vertex="1" parent="1">
          <mxGeometry y="787" width="190" height="20" as="geometry" />
        </mxCell>
        <mxCell id="pd4c6uAxkkvnBWKRY6Wq-7" value="" style="endArrow=none;html=1;rounded=0;fontFamily=Courier New;fontSize=9;exitX=0;exitY=0;exitDx=0;exitDy=0;" edge="1" parent="1" source="pd4c6uAxkkvnBWKRY6Wq-1">
          <mxGeometry width="50" height="50" relative="1" as="geometry">
            <mxPoint x="120" y="740" as="sourcePoint" />
            <mxPoint x="80" y="720" as="targetPoint" />
          </mxGeometry>
        </mxCell>
        <mxCell id="PBk8WEaCfL0DDT6xwDyO-42" value="4. Convert Card to HTML file" style="text;html=1;strokeColor=none;fillColor=none;align=left;verticalAlign=middle;whiteSpace=wrap;rounded=0;fontFamily=Courier New;fontSize=10;fontColor=#000000;" vertex="1" parent="1">
          <mxGeometry y="817" width="190" height="20" as="geometry" />
        </mxCell>
        <mxCell id="pd4c6uAxkkvnBWKRY6Wq-8" value="" style="endArrow=none;html=1;rounded=0;fontFamily=Courier New;fontSize=9;exitX=0;exitY=1;exitDx=0;exitDy=0;" edge="1" parent="1" source="pd4c6uAxkkvnBWKRY6Wq-1">
          <mxGeometry width="50" height="50" relative="1" as="geometry">
            <mxPoint x="210" y="810" as="sourcePoint" />
            <mxPoint x="80" y="960" as="targetPoint" />
          </mxGeometry>
        </mxCell>
        <mxCell id="PBk8WEaCfL0DDT6xwDyO-43" value="5. Send HTML to BackEnd" style="text;html=1;strokeColor=none;fillColor=none;align=left;verticalAlign=middle;whiteSpace=wrap;rounded=0;fontFamily=Courier New;fontSize=10;fontColor=#000000;" vertex="1" parent="1">
          <mxGeometry y="841" width="190" height="20" as="geometry" />
        </mxCell>
        <mxCell id="pd4c6uAxkkvnBWKRY6Wq-9" value="1. Create gif template" style="text;html=1;strokeColor=none;fillColor=none;align=left;verticalAlign=middle;whiteSpace=wrap;rounded=0;fontFamily=Courier New;fontSize=9;" vertex="1" parent="1">
          <mxGeometry x="10" y="760" width="140" height="20" as="geometry" />
        </mxCell>
        <mxCell id="PBk8WEaCfL0DDT6xwDyO-44" value="6. Wait for result or talk him that he can do other action during waiting time" style="text;html=1;strokeColor=none;fillColor=none;align=left;verticalAlign=middle;whiteSpace=wrap;rounded=0;fontFamily=Courier New;fontSize=10;fontColor=#000000;" vertex="1" parent="1">
          <mxGeometry y="861" width="190" height="39" as="geometry" />
        </mxCell>
        <mxCell id="pd4c6uAxkkvnBWKRY6Wq-10" value="2. Choose recipient&lt;span style=&quot;color: rgba(0, 0, 0, 0); font-family: monospace; font-size: 0px;&quot;&gt;%3CmxGraphModel%3E%3Croot%3E%3CmxCell%20id%3D%220%22%2F%3E%3CmxCell%20id%3D%221%22%20parent%3D%220%22%2F%3E%3CmxCell%20id%3D%222%22%20value%3D%221.%20Create%20gif%20template%22%20style%3D%22text%3Bhtml%3D1%3BstrokeColor%3Dnone%3BfillColor%3Dnone%3Balign%3Dcenter%3BverticalAlign%3Dmiddle%3BwhiteSpace%3Dwrap%3Brounded%3D0%3BfontFamily%3DCourier%20New%3BfontSize%3D9%3B%22%20vertex%3D%221%22%20parent%3D%221%22%3E%3CmxGeometry%20y%3D%22760%22%20width%3D%22140%22%20height%3D%2220%22%20as%3D%22geometry%22%2F%3E%3C%2FmxCell%3E%3C%2Froot%3E%3C%2FmxGraphModel%3E&lt;/span&gt;" style="text;html=1;strokeColor=none;fillColor=none;align=left;verticalAlign=middle;whiteSpace=wrap;rounded=0;fontFamily=Courier New;fontSize=9;" vertex="1" parent="1">
          <mxGeometry x="10" y="780" width="140" height="20" as="geometry" />
        </mxCell>
        <mxCell id="PBk8WEaCfL0DDT6xwDyO-45" value="6. Check Gif and ask for send to recipient" style="text;html=1;strokeColor=none;fillColor=none;align=left;verticalAlign=middle;whiteSpace=wrap;rounded=0;fontFamily=Courier New;fontSize=10;fontColor=#000000;" vertex="1" parent="1">
          <mxGeometry y="900" width="190" height="39" as="geometry" />
        </mxCell>
        <mxCell id="pd4c6uAxkkvnBWKRY6Wq-11" value="3. User checke Card created from Html, Css and JS" style="text;html=1;strokeColor=none;fillColor=none;align=left;verticalAlign=middle;whiteSpace=wrap;rounded=0;fontFamily=Courier New;fontSize=9;" vertex="1" parent="1">
          <mxGeometry x="10" y="800" width="190" height="20" as="geometry" />
        </mxCell>
        <mxCell id="PBk8WEaCfL0DDT6xwDyO-46" value="" style="endArrow=classic;html=1;rounded=0;fontFamily=Courier New;fontSize=10;fontColor=#000000;exitX=1.005;exitY=0.883;exitDx=0;exitDy=0;exitPerimeter=0;entryX=-0.005;entryY=0.879;entryDx=0;entryDy=0;entryPerimeter=0;" edge="1" parent="1" source="PBk8WEaCfL0DDT6xwDyO-35" target="PBk8WEaCfL0DDT6xwDyO-36">
          <mxGeometry width="50" height="50" relative="1" as="geometry">
            <mxPoint x="380" y="890" as="sourcePoint" />
            <mxPoint x="430" y="840" as="targetPoint" />
          </mxGeometry>
        </mxCell>
        <mxCell id="pd4c6uAxkkvnBWKRY6Wq-12" value="4. Convet card to HTML file" style="text;html=1;strokeColor=none;fillColor=none;align=left;verticalAlign=middle;whiteSpace=wrap;rounded=0;fontFamily=Courier New;fontSize=9;" vertex="1" parent="1">
          <mxGeometry x="10" y="821" width="190" height="20" as="geometry" />
        </mxCell>
        <mxCell id="PBk8WEaCfL0DDT6xwDyO-47" value="&lt;font style=&quot;font-size: 8px;&quot;&gt;Create gif from HTML&lt;/font&gt;" style="text;html=1;strokeColor=none;fillColor=none;align=center;verticalAlign=middle;whiteSpace=wrap;rounded=0;fontFamily=Courier New;fontSize=10;fontColor=#000000;" vertex="1" parent="1">
          <mxGeometry x="391.5" y="858" width="99" height="10" as="geometry" />
        </mxCell>
        <mxCell id="pd4c6uAxkkvnBWKRY6Wq-13" value="5. Send HTML to Backend&amp;nbsp;" style="text;html=1;strokeColor=none;fillColor=none;align=left;verticalAlign=middle;whiteSpace=wrap;rounded=0;fontFamily=Courier New;fontSize=9;" vertex="1" parent="1">
          <mxGeometry x="10" y="840" width="190" height="20" as="geometry" />
        </mxCell>
        <mxCell id="PBk8WEaCfL0DDT6xwDyO-48" value="" style="endArrow=classic;html=1;rounded=0;fontFamily=Courier New;fontSize=10;fontColor=#000000;exitX=1.005;exitY=0.883;exitDx=0;exitDy=0;exitPerimeter=0;entryX=-0.005;entryY=0.879;entryDx=0;entryDy=0;entryPerimeter=0;" edge="1" parent="1">
          <mxGeometry width="50" height="50" relative="1" as="geometry">
            <mxPoint x="520" y="845.9999999999999" as="sourcePoint" />
            <mxPoint x="362.19999999999993" y="846.32" as="targetPoint" />
          </mxGeometry>
        </mxCell>
        <mxCell id="pd4c6uAxkkvnBWKRY6Wq-14" value="6. Wait for result or ask user for doing something else during waithig time" style="text;html=1;strokeColor=none;fillColor=none;align=left;verticalAlign=middle;whiteSpace=wrap;rounded=0;fontFamily=Courier New;fontSize=9;" vertex="1" parent="1">
          <mxGeometry x="10" y="860" width="190" height="30" as="geometry" />
        </mxCell>
        <mxCell id="PBk8WEaCfL0DDT6xwDyO-49" value="&lt;span style=&quot;font-size: 8px;&quot;&gt;Created gif&lt;/span&gt;" style="text;html=1;strokeColor=none;fillColor=none;align=center;verticalAlign=middle;whiteSpace=wrap;rounded=0;fontFamily=Courier New;fontSize=10;fontColor=#000000;direction=south;" vertex="1" parent="1">
          <mxGeometry x="403.5" y="834.59" width="75" height="10.82" as="geometry" />
        </mxCell>
        <mxCell id="pd4c6uAxkkvnBWKRY6Wq-15" value="7. Check gif and ask for send to recipient" style="text;html=1;strokeColor=none;fillColor=none;align=left;verticalAlign=middle;whiteSpace=wrap;rounded=0;fontFamily=Courier New;fontSize=9;" vertex="1" parent="1">
          <mxGeometry x="10" y="890" width="120" height="30" as="geometry" />
        </mxCell>
        <mxCell id="PBk8WEaCfL0DDT6xwDyO-50" value="" style="endArrow=none;html=1;rounded=0;fontFamily=Courier New;fontSize=10;fontColor=#000000;" edge="1" parent="1">
          <mxGeometry width="50" height="50" relative="1" as="geometry">
            <mxPoint x="640" y="800" as="sourcePoint" />
            <mxPoint x="760" y="720" as="targetPoint" />
          </mxGeometry>
        </mxCell>
        <mxCell id="pd4c6uAxkkvnBWKRY6Wq-16" value="" style="endArrow=none;html=1;rounded=0;fontFamily=Courier New;fontSize=9;" edge="1" parent="1">
          <mxGeometry width="50" height="50" relative="1" as="geometry">
            <mxPoint x="721" y="720" as="sourcePoint" />
            <mxPoint x="601" y="800" as="targetPoint" />
          </mxGeometry>
        </mxCell>
        <mxCell id="PBk8WEaCfL0DDT6xwDyO-51" value="" style="endArrow=none;html=1;rounded=0;fontFamily=Courier New;fontSize=10;fontColor=#000000;exitX=1;exitY=1;exitDx=0;exitDy=0;" edge="1" parent="1" source="PBk8WEaCfL0DDT6xwDyO-36">
          <mxGeometry width="50" height="50" relative="1" as="geometry">
            <mxPoint x="670" y="900" as="sourcePoint" />
            <mxPoint x="760" y="960" as="targetPoint" />
          </mxGeometry>
        </mxCell>
        <mxCell id="pd4c6uAxkkvnBWKRY6Wq-17" value="" style="endArrow=none;html=1;rounded=0;fontFamily=Courier New;fontSize=9;" edge="1" parent="1">
          <mxGeometry width="50" height="50" relative="1" as="geometry">
            <mxPoint x="721" y="960" as="sourcePoint" />
            <mxPoint x="601" y="880" as="targetPoint" />
          </mxGeometry>
        </mxCell>
        <mxCell id="PBk8WEaCfL0DDT6xwDyO-52" value="&lt;b&gt;Azure Storage Account&lt;/b&gt;" style="rhombus;whiteSpace=wrap;html=1;fontFamily=Courier New;fontSize=8;fontColor=#000000;" vertex="1" parent="1">
          <mxGeometry x="535.5" y="960" width="130" height="130" as="geometry" />
        </mxCell>
        <mxCell id="pd4c6uAxkkvnBWKRY6Wq-18" value="1. Save HTML to Azure Store" style="text;html=1;strokeColor=none;fillColor=none;align=left;verticalAlign=middle;whiteSpace=wrap;rounded=0;fontFamily=Courier New;fontSize=9;" vertex="1" parent="1">
          <mxGeometry x="647" y="780" width="170" height="20" as="geometry" />
        </mxCell>
        <mxCell id="PBk8WEaCfL0DDT6xwDyO-53" value="" style="endArrow=classic;html=1;rounded=0;fontFamily=Courier New;fontSize=8;fontColor=#000000;exitX=0.394;exitY=1;exitDx=0;exitDy=0;entryX=0;entryY=0;entryDx=0;entryDy=0;exitPerimeter=0;" edge="1" parent="1" source="PBk8WEaCfL0DDT6xwDyO-36" target="PBk8WEaCfL0DDT6xwDyO-52">
          <mxGeometry width="50" height="50" relative="1" as="geometry">
            <mxPoint x="630" y="880" as="sourcePoint" />
            <mxPoint x="620" y="910" as="targetPoint" />
          </mxGeometry>
        </mxCell>
        <mxCell id="pd4c6uAxkkvnBWKRY6Wq-19" value="2. Send request to selenium to create screenshots of our animated gif&lt;span style=&quot;color: rgba(0, 0, 0, 0); font-family: monospace; font-size: 0px;&quot;&gt;%3CmxGraphModel%3E%3Croot%3E%3CmxCell%20id%3D%220%22%2F%3E%3CmxCell%20id%3D%221%22%20parent%3D%220%22%2F%3E%3CmxCell%20id%3D%222%22%20value%3D%221.%20Create%20gif%20template%22%20style%3D%22text%3Bhtml%3D1%3BstrokeColor%3Dnone%3BfillColor%3Dnone%3Balign%3Dcenter%3BverticalAlign%3Dmiddle%3BwhiteSpace%3Dwrap%3Brounded%3D0%3BfontFamily%3DCourier%20New%3BfontSize%3D9%3B%22%20vertex%3D%221%22%20parent%3D%221%22%3E%3CmxGeometry%20y%3D%22760%22%20width%3D%22140%22%20height%3D%2220%22%20as%3D%22geometry%22%2F%3E%3C%2FmxCell%3E%3C%2Froot%3E%3C%2FmxGraphModel%3E&lt;/span&gt;" style="text;html=1;strokeColor=none;fillColor=none;align=left;verticalAlign=middle;whiteSpace=wrap;rounded=0;fontFamily=Courier New;fontSize=9;" vertex="1" parent="1">
          <mxGeometry x="647" y="796" width="200" height="40" as="geometry" />
        </mxCell>
        <mxCell id="PBk8WEaCfL0DDT6xwDyO-54" value="" style="endArrow=classic;html=1;rounded=0;fontFamily=Courier New;fontSize=8;fontColor=#000000;exitX=0.75;exitY=1;exitDx=0;exitDy=0;entryX=0.727;entryY=0.231;entryDx=0;entryDy=0;entryPerimeter=0;" edge="1" parent="1" target="PBk8WEaCfL0DDT6xwDyO-52">
          <mxGeometry width="50" height="50" relative="1" as="geometry">
            <mxPoint x="630" y="880" as="sourcePoint" />
            <mxPoint x="620" y="910" as="targetPoint" />
          </mxGeometry>
        </mxCell>
        <mxCell id="pd4c6uAxkkvnBWKRY6Wq-20" value="3. Combine screenshots to gif" style="text;html=1;strokeColor=none;fillColor=none;align=left;verticalAlign=middle;whiteSpace=wrap;rounded=0;fontFamily=Courier New;fontSize=9;" vertex="1" parent="1">
          <mxGeometry x="647" y="836" width="190" height="20" as="geometry" />
        </mxCell>
        <mxCell id="PBk8WEaCfL0DDT6xwDyO-55" value="&lt;span style=&quot;font-size: 8px;&quot;&gt;Save HTML&lt;/span&gt;" style="text;html=1;strokeColor=none;fillColor=none;align=center;verticalAlign=middle;whiteSpace=wrap;rounded=0;fontFamily=Courier New;fontSize=10;fontColor=#000000;rotation=-90;" vertex="1" parent="1">
          <mxGeometry x="511" y="929" width="99" height="10" as="geometry" />
        </mxCell>
        <mxCell id="pd4c6uAxkkvnBWKRY6Wq-21" value="4. Save screenshots to store" style="text;html=1;strokeColor=none;fillColor=none;align=left;verticalAlign=middle;whiteSpace=wrap;rounded=0;fontFamily=Courier New;fontSize=9;" vertex="1" parent="1">
          <mxGeometry x="647" y="856" width="190" height="20" as="geometry" />
        </mxCell>
        <mxCell id="PBk8WEaCfL0DDT6xwDyO-56" value="&lt;span style=&quot;font-size: 8px;&quot;&gt;Save Gif&lt;/span&gt;" style="text;html=1;strokeColor=none;fillColor=none;align=center;verticalAlign=middle;whiteSpace=wrap;rounded=0;fontFamily=Courier New;fontSize=10;fontColor=#000000;rotation=-90;" vertex="1" parent="1">
          <mxGeometry x="570" y="929" width="99" height="11" as="geometry" />
        </mxCell>
        <mxCell id="pd4c6uAxkkvnBWKRY6Wq-22" value="5. Return gif to FrontEnd" style="text;html=1;strokeColor=none;fillColor=none;align=left;verticalAlign=middle;whiteSpace=wrap;rounded=0;fontFamily=Courier New;fontSize=9;" vertex="1" parent="1">
          <mxGeometry x="647" y="876" width="190" height="20" as="geometry" />
        </mxCell>
        <mxCell id="PBk8WEaCfL0DDT6xwDyO-58" value="1. Save HTML to Azure Store" style="text;html=1;strokeColor=none;fillColor=none;align=left;verticalAlign=middle;whiteSpace=wrap;rounded=0;fontFamily=Courier New;fontSize=10;fontColor=#000000;" vertex="1" parent="1">
          <mxGeometry x="678" y="774" width="170" height="20" as="geometry" />
        </mxCell>
        <mxCell id="pd4c6uAxkkvnBWKRY6Wq-23" value="&lt;b&gt;&lt;font style=&quot;font-size: 10px;&quot;&gt;Azure Storage Account&lt;/font&gt;&lt;/b&gt;" style="rhombus;whiteSpace=wrap;html=1;fontFamily=Courier New;fontSize=9;" vertex="1" parent="1">
          <mxGeometry x="485" y="950" width="120" height="120" as="geometry" />
        </mxCell>
        <mxCell id="PBk8WEaCfL0DDT6xwDyO-59" value="2. Send request to Selenium to create screenshots of our animated gif" style="text;html=1;strokeColor=none;fillColor=none;align=left;verticalAlign=middle;whiteSpace=wrap;rounded=0;fontFamily=Courier New;fontSize=10;fontColor=#000000;" vertex="1" parent="1">
          <mxGeometry x="678" y="802" width="170" height="20" as="geometry" />
        </mxCell>
        <mxCell id="pd4c6uAxkkvnBWKRY6Wq-24" value="" style="endArrow=classic;html=1;rounded=0;fontFamily=Courier New;fontSize=10;exitX=0.269;exitY=0.994;exitDx=0;exitDy=0;entryX=0;entryY=0;entryDx=0;entryDy=0;exitPerimeter=0;" edge="1" parent="1" source="pd4c6uAxkkvnBWKRY6Wq-2" target="pd4c6uAxkkvnBWKRY6Wq-23">
          <mxGeometry width="50" height="50" relative="1" as="geometry">
            <mxPoint x="400" y="970" as="sourcePoint" />
            <mxPoint x="450" y="920" as="targetPoint" />
          </mxGeometry>
        </mxCell>
        <mxCell id="PBk8WEaCfL0DDT6xwDyO-60" value="3. Combine screenshots to gif" style="text;html=1;strokeColor=none;fillColor=none;align=left;verticalAlign=middle;whiteSpace=wrap;rounded=0;fontFamily=Courier New;fontSize=10;fontColor=#000000;" vertex="1" parent="1">
          <mxGeometry x="678" y="837" width="170" height="20" as="geometry" />
        </mxCell>
        <mxCell id="pd4c6uAxkkvnBWKRY6Wq-25" value="" style="endArrow=classic;html=1;rounded=0;fontFamily=Courier New;fontSize=10;exitX=0.779;exitY=1.001;exitDx=0;exitDy=0;entryX=1;entryY=0;entryDx=0;entryDy=0;exitPerimeter=0;" edge="1" parent="1" source="pd4c6uAxkkvnBWKRY6Wq-2" target="pd4c6uAxkkvnBWKRY6Wq-23">
          <mxGeometry width="50" height="50" relative="1" as="geometry">
            <mxPoint x="570" y="880" as="sourcePoint" />
            <mxPoint x="571.5" y="977.5" as="targetPoint" />
          </mxGeometry>
        </mxCell>
        <mxCell id="PBk8WEaCfL0DDT6xwDyO-61" value="4. Save screenshots to store&amp;nbsp;" style="text;html=1;strokeColor=none;fillColor=none;align=left;verticalAlign=middle;whiteSpace=wrap;rounded=0;fontFamily=Courier New;fontSize=10;fontColor=#000000;" vertex="1" parent="1">
          <mxGeometry x="678" y="865" width="170" height="20" as="geometry" />
        </mxCell>
        <mxCell id="pd4c6uAxkkvnBWKRY6Wq-26" value="Save HTML" style="text;html=1;strokeColor=none;fillColor=none;align=center;verticalAlign=middle;whiteSpace=wrap;rounded=0;fontFamily=Courier New;fontSize=10;rotation=-90;" vertex="1" parent="1">
          <mxGeometry x="473" y="910" width="60" height="30" as="geometry" />
        </mxCell>
        <mxCell id="PBk8WEaCfL0DDT6xwDyO-62" value="5. Return Gif to FronEnd&amp;nbsp;" style="text;html=1;strokeColor=none;fillColor=none;align=left;verticalAlign=middle;whiteSpace=wrap;rounded=0;fontFamily=Courier New;fontSize=10;fontColor=#000000;" vertex="1" parent="1">
          <mxGeometry x="678" y="887" width="170" height="20" as="geometry" />
        </mxCell>
        <mxCell id="pd4c6uAxkkvnBWKRY6Wq-27" value="Save Gif" style="text;html=1;strokeColor=none;fillColor=none;align=center;verticalAlign=middle;whiteSpace=wrap;rounded=0;fontFamily=Courier New;fontSize=10;rotation=-90;" vertex="1" parent="1">
          <mxGeometry x="533" y="910" width="60" height="30" as="geometry" />
        </mxCell>
      </root>
    </mxGraphModel>
  </diagram>
</mxfile>
